<svg width="280" height="100" viewBox="0 0 280 100" fill="none" xmlns="http://www.w3.org/2000/svg">
<rect width="280" height="100" fill="#6548A3"/>
<path d="M68.4219 58.8964C65.8987 58.8964 63.887 58.1748 62.3868 56.7315C60.9092 55.2657 60.125 53.2135 60.0341 50.5751L60 49.7294L60.0341 48.8837C60.1478 46.3129 60.9433 44.2946 62.4209 42.8288C63.9211 41.3629 65.9215 40.63 68.4219 40.63C71.1042 40.63 73.1727 41.4419 74.6275 43.0655C76.1051 44.6892 76.8438 46.8541 76.8438 49.5603V50.2706C76.8438 50.4961 76.7643 50.6878 76.6051 50.8457C76.446 51.0035 76.2414 51.0825 75.9914 51.0825H64.6713V51.3531C64.7167 52.5934 65.0577 53.642 65.6942 54.4989C66.3534 55.3333 67.2513 55.7505 68.3878 55.7505C69.729 55.7505 70.8087 55.2319 71.627 54.1945C71.8316 53.9464 71.9907 53.7886 72.1044 53.7209C72.2407 53.6533 72.434 53.6194 72.684 53.6194H75.6163C75.8209 53.6194 75.9914 53.6871 76.1278 53.8224C76.2869 53.9352 76.3665 54.0817 76.3665 54.2622C76.3665 54.8034 76.0369 55.4461 75.3777 56.1903C74.7412 56.9119 73.8206 57.5433 72.6158 58.0846C71.4111 58.6258 70.0131 58.8964 68.4219 58.8964ZM72.2067 48.241V48.1395C72.2067 46.809 71.8657 45.7378 71.1837 44.926C70.5245 44.1142 69.6039 43.7082 68.4219 43.7082C67.2399 43.7082 66.3193 44.1142 65.6601 44.926C65.0009 45.7378 64.6713 46.809 64.6713 48.1395V48.241H72.2067Z" fill="#F0EDF5"/>
<path d="M90.4391 58.5581C90.2118 58.5581 90.0186 58.4792 89.8595 58.3214C89.7003 58.1635 89.6208 57.9718 89.6208 57.7463V35.3531C89.6208 35.105 89.7003 34.9133 89.8595 34.778C90.0186 34.6202 90.2118 34.5412 90.4391 34.5412H93.2691C93.5192 34.5412 93.7124 34.6202 93.8488 34.778C94.0079 34.9133 94.0875 35.105 94.0875 35.3531V57.7463C94.0875 57.9718 94.0079 58.1635 93.8488 58.3214C93.7124 58.4792 93.5192 58.5581 93.2691 58.5581H90.4391Z" fill="#F0EDF5"/>
<path d="M106.248 58.8964C103.725 58.8964 101.713 58.1748 100.213 56.7315C98.7354 55.2657 97.9511 53.2135 97.8602 50.5751L97.8261 49.7294L97.8602 48.8837C97.9739 46.3129 98.7695 44.2946 100.247 42.8288C101.747 41.3629 103.748 40.63 106.248 40.63C108.93 40.63 110.999 41.4419 112.454 43.0655C113.931 44.6892 114.67 46.8541 114.67 49.5603V50.2706C114.67 50.4961 114.59 50.6878 114.431 50.8457C114.272 51.0035 114.068 51.0825 113.818 51.0825H102.497V51.3531C102.543 52.5934 102.884 53.642 103.52 54.4989C104.179 55.3333 105.077 55.7505 106.214 55.7505C107.555 55.7505 108.635 55.2319 109.453 54.1945C109.658 53.9464 109.817 53.7886 109.93 53.7209C110.067 53.6533 110.26 53.6194 110.51 53.6194H113.442C113.647 53.6194 113.818 53.6871 113.954 53.8224C114.113 53.9352 114.193 54.0817 114.193 54.2622C114.193 54.8034 113.863 55.4461 113.204 56.1903C112.567 56.9119 111.647 57.5433 110.442 58.0846C109.237 58.6258 107.839 58.8964 106.248 58.8964ZM110.033 48.241V48.1395C110.033 46.809 109.692 45.7378 109.01 44.926C108.351 44.1142 107.43 43.7082 106.248 43.7082C105.066 43.7082 104.145 44.1142 103.486 44.926C102.827 45.7378 102.497 46.809 102.497 48.1395V48.241H110.033Z" fill="#F0EDF5"/>
<path d="M123.438 58.8964C122.279 58.8964 121.21 58.6709 120.233 58.2199C119.278 57.7463 118.517 57.1149 117.948 56.3256C117.403 55.5363 117.13 54.6681 117.13 53.7209C117.13 52.1875 117.755 50.9471 119.005 50C120.256 49.0529 121.972 48.4101 124.154 48.0719L128.825 47.3953V46.685C128.825 45.6927 128.575 44.9486 128.075 44.4524C127.575 43.9563 126.768 43.7082 125.654 43.7082C124.904 43.7082 124.29 43.8548 123.813 44.148C123.358 44.4186 122.995 44.6892 122.722 44.9598C122.449 45.253 122.267 45.4447 122.176 45.5349C122.085 45.8055 121.915 45.9408 121.665 45.9408H119.039C118.835 45.9408 118.653 45.8731 118.494 45.7378C118.357 45.6025 118.289 45.4221 118.289 45.1966C118.312 44.6328 118.585 43.9901 119.108 43.2685C119.653 42.5469 120.483 41.9267 121.597 41.408C122.71 40.8894 124.074 40.63 125.688 40.63C128.371 40.63 130.325 41.2276 131.553 42.4228C132.78 43.618 133.394 45.1853 133.394 47.1247V57.7463C133.394 57.9718 133.315 58.1635 133.155 58.3214C133.019 58.4792 132.826 58.5581 132.576 58.5581H129.814C129.587 58.5581 129.393 58.4792 129.234 58.3214C129.075 58.1635 128.996 57.9718 128.996 57.7463V56.4271C128.496 57.1487 127.78 57.7463 126.848 58.2199C125.938 58.6709 124.802 58.8964 123.438 58.8964ZM124.597 55.6829C125.847 55.6829 126.87 55.277 127.666 54.4651C128.461 53.6533 128.859 52.4693 128.859 50.9133V50.203L125.45 50.7442C124.131 50.9471 123.131 51.2741 122.449 51.7252C121.79 52.1762 121.46 52.7287 121.46 53.3827C121.46 54.1043 121.767 54.6681 122.381 55.074C122.995 55.4799 123.733 55.6829 124.597 55.6829Z" fill="#F0EDF5"/>
<path d="M138.587 58.5581C138.359 58.5581 138.166 58.4792 138.007 58.3214C137.848 58.1635 137.768 57.9718 137.768 57.7463V41.814C137.768 41.5884 137.848 41.3968 138.007 41.2389C138.166 41.0585 138.359 40.9683 138.587 40.9683H141.349C141.599 40.9683 141.803 41.0472 141.962 41.2051C142.121 41.3629 142.201 41.5659 142.201 41.814V43.2008C142.747 42.4792 143.428 41.9267 144.247 41.5433C145.088 41.16 146.043 40.9683 147.111 40.9683H148.509C148.759 40.9683 148.952 41.0472 149.089 41.2051C149.248 41.3404 149.327 41.5321 149.327 41.7801V44.2156C149.327 44.4412 149.248 44.6328 149.089 44.7907C148.952 44.9486 148.759 45.0275 148.509 45.0275H145.849C144.781 45.0275 143.94 45.3319 143.326 45.9408C142.712 46.5497 142.406 47.3841 142.406 48.444V57.7463C142.406 57.9718 142.326 58.1635 142.167 58.3214C142.008 58.4792 141.803 58.5581 141.553 58.5581H138.587Z" fill="#F0EDF5"/>
<path d="M152.805 58.5581C152.577 58.5581 152.384 58.4792 152.225 58.3214C152.066 58.1635 151.986 57.9718 151.986 57.7463V41.7801C151.986 41.5546 152.066 41.3629 152.225 41.2051C152.384 41.0472 152.577 40.9683 152.805 40.9683H155.601C155.828 40.9683 156.021 41.0472 156.18 41.2051C156.34 41.3629 156.419 41.5546 156.419 41.7801V43.167C157.76 41.4757 159.658 40.63 162.113 40.63C164.205 40.63 165.864 41.3178 167.091 42.6934C168.319 44.0465 168.933 45.8957 168.933 48.241V57.7463C168.933 57.9718 168.853 58.1635 168.694 58.3214C168.558 58.4792 168.364 58.5581 168.114 58.5581H165.114C164.886 58.5581 164.693 58.4792 164.534 58.3214C164.375 58.1635 164.295 57.9718 164.295 57.7463V48.444C164.295 47.1135 163.966 46.0874 163.307 45.3657C162.67 44.6216 161.738 44.2495 160.511 44.2495C159.306 44.2495 158.351 44.6216 157.647 45.3657C156.965 46.1099 156.624 47.136 156.624 48.444V57.7463C156.624 57.9718 156.544 58.1635 156.385 58.3214C156.249 58.4792 156.055 58.5581 155.805 58.5581H152.805Z" fill="#F0EDF5"/>
<path d="M173.946 38.0592C173.718 38.0592 173.525 37.9803 173.366 37.8224C173.207 37.6646 173.127 37.4729 173.127 37.2474V34.8118C173.127 34.5863 173.207 34.3946 173.366 34.2368C173.525 34.0789 173.718 34 173.946 34H177.048C177.276 34 177.469 34.0789 177.628 34.2368C177.81 34.3946 177.901 34.5863 177.901 34.8118V37.2474C177.901 37.4729 177.821 37.6646 177.662 37.8224C177.503 37.9803 177.298 38.0592 177.048 38.0592H173.946ZM174.082 58.5581C173.855 58.5581 173.661 58.4792 173.502 58.3214C173.343 58.1635 173.264 57.9718 173.264 57.7463V41.7801C173.264 41.5546 173.343 41.3629 173.502 41.2051C173.661 41.0472 173.855 40.9683 174.082 40.9683H176.912C177.162 40.9683 177.355 41.0472 177.492 41.2051C177.651 41.3404 177.73 41.5321 177.73 41.7801V57.7463C177.73 57.9718 177.651 58.1635 177.492 58.3214C177.355 58.4792 177.162 58.5581 176.912 58.5581H174.082Z" fill="#F0EDF5"/>
<path d="M183.072 58.5581C182.845 58.5581 182.652 58.4792 182.493 58.3214C182.334 58.1635 182.254 57.9718 182.254 57.7463V41.7801C182.254 41.5546 182.334 41.3629 182.493 41.2051C182.652 41.0472 182.845 40.9683 183.072 40.9683H185.868C186.096 40.9683 186.289 41.0472 186.448 41.2051C186.607 41.3629 186.687 41.5546 186.687 41.7801V43.167C188.028 41.4757 189.926 40.63 192.381 40.63C194.472 40.63 196.131 41.3178 197.359 42.6934C198.586 44.0465 199.2 45.8957 199.2 48.241V57.7463C199.2 57.9718 199.121 58.1635 198.961 58.3214C198.825 58.4792 198.632 58.5581 198.382 58.5581H195.381C195.154 58.5581 194.961 58.4792 194.802 58.3214C194.643 58.1635 194.563 57.9718 194.563 57.7463V48.444C194.563 47.1135 194.233 46.0874 193.574 45.3657C192.938 44.6216 192.006 44.2495 190.778 44.2495C189.573 44.2495 188.619 44.6216 187.914 45.3657C187.232 46.1099 186.891 47.136 186.891 48.444V57.7463C186.891 57.9718 186.812 58.1635 186.653 58.3214C186.516 58.4792 186.323 58.5581 186.073 58.5581H183.072Z" fill="#F0EDF5"/>
<path d="M211.544 66C209.521 66 207.884 65.6617 206.634 64.9852C205.384 64.3312 204.497 63.5758 203.975 62.7188C203.452 61.8619 203.19 61.129 203.19 60.5201C203.19 60.3171 203.27 60.1367 203.429 59.9789C203.611 59.821 203.804 59.7421 204.009 59.7421H206.975C207.18 59.7421 207.35 59.7872 207.486 59.8774C207.646 59.9901 207.771 60.1818 207.862 60.4524C208.089 61.0613 208.453 61.5687 208.953 61.9746C209.475 62.4031 210.282 62.6173 211.374 62.6173C212.737 62.6173 213.738 62.3129 214.374 61.704C215.033 61.0951 215.363 60.0465 215.363 58.5581V56.2579C214.113 57.7237 212.362 58.4567 210.112 58.4567C207.748 58.4567 205.963 57.735 204.759 56.2918C203.577 54.8485 202.94 52.9091 202.849 50.4736L202.815 49.5603L202.849 48.6469C202.94 46.2565 203.588 44.3284 204.793 42.8626C205.998 41.3742 207.771 40.63 210.112 40.63C211.317 40.63 212.374 40.8555 213.283 41.3066C214.192 41.7576 214.954 42.3777 215.567 43.167V41.814C215.567 41.5659 215.647 41.3629 215.806 41.2051C215.965 41.0472 216.158 40.9683 216.386 40.9683H219.148C219.375 40.9683 219.568 41.0585 219.727 41.2389C219.886 41.3968 219.966 41.5884 219.966 41.814L220 58.1184C220 60.6216 219.295 62.561 217.886 63.9366C216.477 65.3122 214.363 66 211.544 66ZM211.374 54.871C212.669 54.871 213.635 54.4651 214.272 53.6533C214.931 52.8414 215.295 51.8492 215.363 50.6765C215.386 50.4961 215.397 50.124 215.397 49.5603C215.397 49.019 215.386 48.6582 215.363 48.4778C215.295 47.2826 214.931 46.2791 214.272 45.4672C213.635 44.6554 212.669 44.2495 211.374 44.2495C208.919 44.2495 207.623 45.7491 207.486 48.7484L207.452 49.5603C207.452 51.1614 207.737 52.4468 208.305 53.4165C208.896 54.3862 209.919 54.871 211.374 54.871Z" fill="#F0EDF5"/>
<path d="M81.0769 58.5581C80.8496 58.5581 80.6563 58.4792 80.4972 58.3214C80.3381 58.1635 80.2585 57.9718 80.2585 57.7463V54.3975C80.2585 54.172 80.3381 53.9803 80.4972 53.8224C80.6563 53.642 80.8496 53.5518 81.0769 53.5518H84.4866C84.7139 53.5518 84.9071 53.642 85.0662 53.8224C85.2253 53.9803 85.3049 54.172 85.3049 54.3975V57.7463C85.3049 57.9718 85.2253 58.1635 85.0662 58.3214C84.9071 58.4792 84.7139 58.5581 84.4866 58.5581H81.0769Z" fill="#FF6680"/>
</svg>
